<svg width="16" height="16" viewBox="0 0 16 16" fill="none" xmlns="http://www.w3.org/2000/svg">
<g clip-path="url(#clip0_1_66)">
<path fill-rule="evenodd" clip-rule="evenodd" d="M8.00048 1.99999C4.68677 1.99999 2.00048 4.68628 2.00048 7.99999C2.00048 11.3137 4.68677 14 8.00048 14C11.3142 14 14.0005 11.3137 14.0005 7.99999C14.0005 4.68628 11.3142 1.99999 8.00048 1.99999ZM0.667145 7.99999C0.667145 3.9499 3.95039 0.666656 8.00048 0.666656C12.0506 0.666656 15.3338 3.9499 15.3338 7.99999C15.3338 12.0501 12.0506 15.3333 8.00048 15.3333C3.95039 15.3333 0.667145 12.0501 0.667145 7.99999Z" fill="#7A7A7A"/>
<path fill-rule="evenodd" clip-rule="evenodd" d="M10.4719 5.52858C10.7322 5.78893 10.7322 6.21104 10.4719 6.47139L6.47188 10.4714C6.21153 10.7317 5.78942 10.7317 5.52907 10.4714C5.26872 10.211 5.26872 9.78893 5.52907 9.52858L9.52907 5.52858C9.78942 5.26824 10.2115 5.26824 10.4719 5.52858Z" fill="#7A7A7A"/>
<path fill-rule="evenodd" clip-rule="evenodd" d="M5.52907 5.52858C5.78942 5.26824 6.21153 5.26824 6.47188 5.52858L10.4719 9.52858C10.7322 9.78893 10.7322 10.211 10.4719 10.4714C10.2115 10.7317 9.78942 10.7317 9.52907 10.4714L5.52907 6.47139C5.26872 6.21104 5.26872 5.78893 5.52907 5.52858Z" fill="#7A7A7A"/>
</g>
<defs>
<clipPath id="clip0_1_66">
<rect width="16" height="16" fill="white" transform="translate(0.000488281)"/>
</clipPath>
</defs>
</svg>
